<svg width="11" height="11" viewBox="0 0 11 11" fill="none" xmlns="http://www.w3.org/2000/svg">
<path fill-rule="evenodd" clip-rule="evenodd" d="M7.45991 0.168452C7.372 0.0805445 7.25277 0.0311584 7.12845 0.0311584C7.00413 0.0311584 6.8849 0.0805445 6.797 0.168452L1.05175 5.91369C0.992862 5.97259 0.950725 6.0461 0.929676 6.12669L0.304676 8.51945C0.26262 8.68046 0.309082 8.8517 0.426754 8.96937C0.544425 9.08705 0.715664 9.13351 0.876674 9.09145L3.26944 8.46645C3.35002 8.4454 3.42354 8.40326 3.48243 8.34437L9.22768 2.59913C9.41073 2.41607 9.41073 2.11928 9.22768 1.93622L7.45991 0.168452ZM1.8046 6.48667L7.12845 1.16282L8.23331 2.26768L2.90945 7.59153L1.41398 7.98215L1.8046 6.48667Z" fill="#F8F8F8"/>
<path d="M0.499329 10.0312C0.240445 10.0312 0.0305786 10.241 0.0305786 10.4999C0.0305786 10.7588 0.240445 10.9687 0.499329 10.9687H9.87433C10.1332 10.9687 10.3431 10.7588 10.3431 10.4999C10.3431 10.241 10.1332 10.0312 9.87433 10.0312H0.499329Z" fill="#F8F8F8"/>
</svg>
