<svg width="91" height="109" viewBox="0 0 91 109" fill="none" xmlns="http://www.w3.org/2000/svg">
<path d="M81.5903 109H14.8779L0.660538 39.3712H90.3395L81.5903 109Z" fill="#FF8456"/>
<path d="M40.0315 108.271L37.4797 80.9298H9.40948L5.76399 65.9833H37.4797L34.5633 39.3712H40.0315L20.7105 27.7057L18.5232 25.1538L16.3359 10.9365L17.065 8.38462L26.5433 1.45819L30.5533 0L41.1252 6.19732L42.5834 9.11371L45.8643 27.7057L55.3426 14.5819L56.8008 10.9365L68.8309 3.28094H72.8409L83.7774 9.11371L84.871 18.9565L83.7774 21.5084L68.8309 33.1739L58.9881 39.3712L55.3426 70.3579L86.3292 65.9833L83.7774 88.5853L49.1453 83.4816L55.3426 108.271H40.0315Z" fill="#FFEF7D"/>
<path d="M25.4999 20.5L36.9999 28L36.4999 21.5L31.4999 9.5H25.4999V20.5Z" fill="#4C897C"/>
<path d="M64.4999 17L57.9999 29L72.4999 24V17H64.4999Z" fill="#4C877A"/>
</svg>
