<svg width="113" height="113" viewBox="0 0 113 113" fill="none" xmlns="http://www.w3.org/2000/svg">
<path d="M57 0L62.9255 29.1228L80.184 4.92791L73.7519 33.943L99.3593 18.8596L81.6817 42.75L111.21 39.386L85.3439 54.0209L113.688 62.9581L84.1051 65.807L106.363 85.5L78.1796 76.0702L90.5038 103.114L68.592 83.036L68.851 112.754L57 85.5L45.149 112.754L45.408 83.036L23.4962 103.114L35.8204 76.0702L7.63655 85.5L29.8949 65.807L0.312252 62.9581L28.6561 54.0209L2.78978 39.386L32.3183 42.75L14.6407 18.8596L40.2481 33.943L33.816 4.92791L51.0745 29.1228L57 0Z" fill="#FF8456"/>
</svg>
