<svg width="11" height="11" viewBox="0 0 11 11" fill="none" xmlns="http://www.w3.org/2000/svg">
<path fill-rule="evenodd" clip-rule="evenodd" d="M4.34372 3.52177C4.11849 4.49753 3.24421 5.22499 2.20002 5.22499C0.984983 5.22499 0 4.24001 0 3.02497C0 1.80993 0.984983 0.824951 2.20002 0.824951C3.24418 0.824951 4.11845 1.55237 4.3437 2.5281C4.36227 2.52601 4.38115 2.52493 4.40028 2.52493H9.35032C9.62646 2.52493 9.85032 2.74879 9.85032 3.02493C9.85032 3.30108 9.62646 3.52493 9.35032 3.52493H4.40028C4.38115 3.52493 4.36228 3.52386 4.34372 3.52177ZM1.15021 7.97504C1.15021 7.6989 1.37407 7.47504 1.65021 7.47504H6.60025C6.61909 7.47504 6.63767 7.47608 6.65597 7.47811C6.88124 6.50241 7.75549 5.77502 8.79963 5.77502C10.0147 5.77502 10.9997 6.76001 10.9997 7.97504C10.9997 9.19008 10.0147 10.1751 8.79963 10.1751C7.75548 10.1751 6.88123 9.44767 6.65596 8.47197C6.63767 8.474 6.61908 8.47504 6.60025 8.47504H1.65021C1.37407 8.47504 1.15021 8.25118 1.15021 7.97504Z" fill="white"/>
</svg>
